<svg width="490" height="125" xmlns="http://www.w3.org/2000/svg" xmlns:xlink="http://www.w3.org/1999/xlink"><defs><path id="prefix__a" d="M1.137.084h18.414v25.995H1.137z"/><path id="prefix__c" d="M0 .815h44.67v123.37H0z"/></defs><g fill="none" fill-rule="evenodd"><path d="M211.343 17.696c0-4.891-3.773-8.664-8.664-8.664-4.875 0-8.666 3.773-8.666 8.664 0 4.89 3.79 8.664 8.666 8.664 4.89 0 8.664-3.773 8.664-8.664m-22.39 0c0-7.599 5.922-13.336 13.726-13.336 7.8 0 13.724 5.737 13.724 13.336 0 7.6-5.923 13.336-13.724 13.336-7.804 0-13.725-5.736-13.725-13.336M239.67 12.991c0-2.385-1.523-4.045-4.435-4.045h-4.468a.847.847 0 00-.846.846v6.349c0 .467.38.844.846.844h4.468c2.912 0 4.435-1.505 4.435-3.994m4.89.051c0 4.672-3.35 8.208-8.563 8.208h-5.23a.846.846 0 00-.846.846v7.753a.844.844 0 01-.844.844h-3.353a.845.845 0 01-.846-.844V5.544c0-.467.378-.845.846-.845h10.273c5.212 0 8.564 3.74 8.564 8.343M257.774 10.03v4.62c0 .467.378.846.846.846h7.532c.466 0 .846.378.846.846v2.743c0 .466-.38.846-.846.846h-7.532a.845.845 0 00-.846.844v4.588c0 .468.378.845.846.845h8.785c.466 0 .846.38.846.845v2.795c0 .468-.38.846-.846.846h-13.829a.845.845 0 01-.844-.846V5.544c0-.466.378-.844.844-.844h13.829c.466 0 .846.378.846.844v2.794c0 .468-.38.846-.846.846h-8.785a.846.846 0 00-.846.846M301.907 5.544v24.304c0 .467-.38.846-.846.846h-3.52a.844.844 0 01-.661-.32L283.816 13.97c-.499-.625-1.506-.274-1.506.527v15.352c0 .467-.38.846-.846.846h-3.283a.846.846 0 01-.846-.846V5.544c0-.466.377-.846.846-.846h3.485c.257 0 .5.118.66.319l13.067 16.346c.498.625 1.506.271 1.506-.527V5.544c0-.466.376-.846.844-.846h3.318c.467 0 .846.38.846.846M216.403 62.466c0 7.632-5.906 13.37-13.724 13.37-7.804 0-13.725-5.738-13.725-13.337 0-7.598 5.921-13.334 13.725-13.334 4.487 0 8.357 1.907 10.817 4.957a.853.853 0 01-.244 1.283l-2.902 1.602c-.343.19-.784.129-1.04-.169-1.574-1.837-3.933-3.003-6.65-3.003-4.856 0-8.647 3.707-8.647 8.782 0 4.757 3.368 8.548 8.733 8.548 3.817 0 6.652-1.91 7.895-4.939.224-.55-.199-1.154-.793-1.154h-4.75a.845.845 0 01-.845-.846v-2.47c0-.469.378-.847.845-.847h10.431c.448 0 .813.346.845.792.019.245.029.5.029.765M245.17 62.5c0-4.891-3.775-8.664-8.665-8.664-4.873 0-8.665 3.773-8.665 8.664s3.792 8.664 8.665 8.664c4.89 0 8.664-3.773 8.664-8.664m-22.39 0c0-7.599 5.924-13.336 13.726-13.336 7.801 0 13.726 5.737 13.726 13.336s-5.925 13.336-13.726 13.336c-7.802 0-13.725-5.737-13.725-13.336M279.104 50.648l-9.21 24.304a.844.844 0 01-.788.546h-4.045a.845.845 0 01-.791-.546l-9.193-24.304a.846.846 0 01.79-1.146h3.512c.357 0 .676.226.796.562l6.112 17.129c.268.748 1.324.748 1.592.001l6.128-17.13a.845.845 0 01.795-.562h3.512a.845.845 0 01.79 1.146M292.177 54.833v4.622c0 .467.38.845.846.845h7.532c.467 0 .846.377.846.845v2.743c0 .467-.38.846-.846.846h-7.532a.846.846 0 00-.846.846v4.587c0 .467.38.845.846.845h8.785c.467 0 .844.38.844.846v2.793a.845.845 0 01-.844.846h-13.83a.845.845 0 01-.844-.846V50.35c0-.468.377-.846.844-.846h13.83c.467 0 .844.378.844.846v2.794a.844.844 0 01-.844.844h-8.785a.847.847 0 00-.846.846M316.78 59.624c0 .466.38.845.846.845h3.927c2.42 0 3.724-1.236 3.724-3.316 0-2.048-1.304-3.386-3.724-3.386h-3.927a.846.846 0 00-.846.846v5.01zm3.731 4.89h-2.885a.847.847 0 00-.846.845v9.292a.845.845 0 01-.845.846h-3.353a.845.845 0 01-.844-.846V50.35c0-.468.378-.846.844-.846h9.31c5.347 0 8.275 3.452 8.275 7.699 0 2.845-1.461 5.126-3.708 6.347a.838.838 0 00-.323 1.166l5.63 9.506a.846.846 0 01-.729 1.276h-3.5a.842.842 0 01-.741-.439l-5.544-10.106a.847.847 0 00-.741-.439zM364.688 50.348v24.304c0 .467-.379.846-.846.846h-3.52a.844.844 0 01-.661-.32l-13.064-16.405c-.499-.625-1.506-.274-1.506.527v15.352c0 .467-.38.846-.846.846h-3.285a.845.845 0 01-.844-.846V50.348c0-.466.378-.846.844-.846h3.487c.257 0 .5.118.66.319l13.067 16.346c.497.625 1.506.271 1.506-.528v-15.29c0-.467.376-.847.844-.847h3.318c.467 0 .846.38.846.846M403.353 50.348v24.304a.845.845 0 01-.844.846h-3.353a.847.847 0 01-.846-.846V60.555c0-.926-1.276-1.178-1.628-.32l-6.025 14.737a.847.847 0 01-.782.526h-1.488a.848.848 0 01-.784-.528l-5.992-14.742c-.35-.86-1.628-.61-1.628.318v14.106c0 .467-.38.846-.846.846h-3.352a.847.847 0 01-.846-.846V50.348c0-.466.38-.846.846-.846h5.427c.342 0 .65.207.78.524l6.351 15.379c.287.696 1.272.698 1.561.003l6.413-15.385a.847.847 0 01.78-.52h5.412c.466 0 .844.379.844.845M418.666 54.833v4.622c0 .467.38.845.846.845h7.533c.467 0 .845.377.845.845v2.743a.845.845 0 01-.845.846h-7.533a.846.846 0 00-.846.846v4.587c0 .467.38.845.846.845h8.785c.467 0 .844.38.844.846v2.793a.845.845 0 01-.844.846h-13.83a.845.845 0 01-.844-.846V50.35c0-.468.379-.846.844-.846h13.83c.467 0 .844.378.844.846v2.794a.844.844 0 01-.844.844h-8.785a.847.847 0 00-.846.846M462.799 50.348v24.304c0 .467-.38.846-.846.846h-3.519a.844.844 0 01-.661-.32l-13.064-16.405c-.499-.625-1.506-.274-1.506.527v15.352c0 .467-.38.846-.846.846h-3.286a.845.845 0 01-.845-.846V50.348c0-.466.378-.846.845-.846h3.487c.257 0 .5.118.66.319l13.066 16.346c.497.625 1.506.271 1.506-.528v-15.29c0-.467.377-.847.845-.847h3.318c.466 0 .846.38.846.846" fill="#000"/><g transform="translate(469.477 49.419)"><mask id="prefix__b" fill="#fff"><use xlink:href="#prefix__a"/></mask><path d="M18.706 4.57H13.71a.845.845 0 00-.845.845v19.818a.846.846 0 01-.846.846H8.684a.846.846 0 01-.845-.846V5.415a.845.845 0 00-.846-.846h-5.01a.846.846 0 01-.846-.846V.93c0-.467.38-.846.846-.846h16.723c.466 0 .845.38.845.846v2.793c0 .468-.379.846-.845.846" fill="#000" mask="url(#prefix__b)"/></g><path d="M205.539 102.599c0-2.385-1.524-4.045-4.435-4.045h-4.468a.847.847 0 00-.846.846v6.348c0 .467.38.845.846.845h4.468c2.911 0 4.435-1.506 4.435-3.994m4.89.052c0 4.67-3.35 8.206-8.563 8.206h-5.23a.846.846 0 00-.846.846v7.753a.844.844 0 01-.845.845h-3.353a.845.845 0 01-.846-.845V95.151c0-.467.378-.844.846-.844h10.274c5.213 0 8.564 3.74 8.564 8.344M223.642 104.428c0 .466.38.846.846.846h3.926c2.42 0 3.724-1.237 3.724-3.319 0-2.048-1.304-3.383-3.724-3.383h-3.926a.845.845 0 00-.846.844v5.012zm3.73 4.89h-2.884a.847.847 0 00-.846.845v9.292a.845.845 0 01-.845.846h-3.354a.845.845 0 01-.844-.846V95.151c0-.466.378-.844.844-.844h9.31c5.347 0 8.276 3.452 8.276 7.7 0 2.842-1.46 5.126-3.71 6.345a.84.84 0 00-.322 1.166l5.628 9.507a.845.845 0 01-.727 1.276h-3.5a.845.845 0 01-.741-.439l-5.544-10.106a.847.847 0 00-.74-.439zM266.88 107.304c0-4.89-3.775-8.664-8.665-8.664-4.873 0-8.665 3.773-8.665 8.664s3.792 8.664 8.665 8.664c4.89 0 8.665-3.773 8.665-8.664m-22.39 0c0-7.6 5.923-13.336 13.725-13.336 7.801 0 13.726 5.736 13.726 13.336 0 7.599-5.925 13.336-13.726 13.336-7.802 0-13.725-5.737-13.725-13.336M289.097 115.816c5.517 0 8.19-3.012 8.19-8.512 0-5.501-2.673-8.512-8.19-8.512h-2.811a.845.845 0 00-.846.845v15.333c0 .468.38.846.846.846h2.81zm-8.682-20.665c0-.466.378-.844.845-.844h8.055c8.634 0 13.2 5.126 13.2 12.997 0 7.87-4.566 12.997-13.2 12.997h-8.055a.845.845 0 01-.845-.846V95.151zM310.621 111.298V95.152c0-.468.378-.846.845-.846h3.353c.466 0 .846.378.846.846v15.367c0 4.146 2.385 5.654 5.517 5.654 3.147 0 5.532-1.508 5.532-5.654V95.152c0-.468.38-.846.846-.846h3.37c.467 0 .845.378.845.846v16.146c0 6.21-4.57 9.341-10.593 9.341-5.991 0-10.56-3.13-10.56-9.341M339.725 107.304c0-7.6 5.906-13.336 13.724-13.336 3.514 0 6.862 1.306 9.272 3.432a.852.852 0 01.026 1.262l-2.323 2.178a.837.837 0 01-1.136.012c-1.532-1.395-3.624-2.212-5.84-2.212-4.89 0-8.663 3.756-8.663 8.664 0 4.907 3.773 8.664 8.664 8.664 2.215 0 4.307-.817 5.839-2.213a.837.837 0 011.136.013l2.323 2.179a.852.852 0 01-.026 1.261c-2.41 2.125-5.758 3.432-9.272 3.432-7.818 0-13.724-5.737-13.724-13.336M386.363 98.792h-4.994a.845.845 0 00-.845.846v19.818a.845.845 0 01-.846.844h-3.335a.845.845 0 01-.846-.844V99.638a.844.844 0 00-.845-.846h-5.011a.845.845 0 01-.845-.846v-2.794c0-.468.378-.846.845-.846h16.722c.467 0 .846.378.846.846v2.794c0 .466-.38.846-.846.846M393.32 115.894l1.83-2.285a.836.836 0 011.238-.082c1.747 1.687 4.155 2.83 6.27 2.83 2.03 0 3.503-1.048 3.503-2.893 0-2.319-2.318-3.182-5.28-4.484-3.402-1.49-6.989-3.182-6.989-7.77 0-4.603 3.587-7.242 8.02-7.242 2.934 0 5.695 1.096 7.961 2.908.348.278.399.788.134 1.147l-1.637 2.222a.84.84 0 01-1.203.16c-1.747-1.449-3.72-2.155-5.372-2.155-1.643 0-2.944.83-2.944 2.453 0 2.115 2.233 2.945 5.229 4.231 3.418 1.508 7.125 3.368 7.125 8.208 0 4.976-3.926 7.48-8.564 7.48-3.345 0-6.775-1.342-9.213-3.56a.856.856 0 01-.107-1.168" fill="#000"/><g><mask id="prefix__d" fill="#fff"><use xlink:href="#prefix__c"/></mask><path d="M44.241 111.748a3.177 3.177 0 00-.999-4.248c-14.658-9.606-24.347-26.166-24.347-45 0-18.833 9.689-35.394 24.347-44.999a3.18 3.18 0 00.999-4.25L37.984 2.414C37.065.822 35.003.337 33.458 1.33 13.338 14.253 0 36.812 0 62.5c0 25.689 13.338 48.247 33.458 61.17 1.545.992 3.607.507 4.526-1.083l6.257-10.839z" fill="#276EF1" mask="url(#prefix__d)"/></g><path d="M107.366 2.414l-6.258 10.838a3.178 3.178 0 00.999 4.249c14.658 9.605 24.346 26.166 24.346 44.998 0 18.835-9.688 35.394-24.346 45a3.177 3.177 0 00-.999 4.249l6.258 10.839c.918 1.59 2.98 2.075 4.526 1.082 20.119-12.922 33.456-35.48 33.456-61.17 0-25.687-13.337-48.245-33.456-61.17-1.545-.992-3.608-.507-4.526 1.085" fill="#276EF1"/></g></svg>